<mxfile host="65bd71144e">
    <diagram id="pEnP1d7oMrhFH_PBlpYw" name="PÃ¡gina-1">
        <mxGraphModel dx="1800" dy="1006" grid="1" gridSize="10" guides="1" tooltips="1" connect="1" arrows="1" fold="1" page="1" pageScale="1" pageWidth="827" pageHeight="1169" math="0" shadow="0">
            <root>
                <mxCell id="0"/>
                <mxCell id="1" parent="0"/>
                <mxCell id="3" value="F" style="edgeStyle=none;html=1;" parent="1" source="2" target="7" edge="1">
                    <mxGeometry relative="1" as="geometry">
                        <mxPoint x="240" y="650" as="targetPoint"/>
                    </mxGeometry>
                </mxCell>
                <mxCell id="4" value="T" style="edgeStyle=none;html=1;" parent="1" source="2" target="5" edge="1">
                    <mxGeometry relative="1" as="geometry">
                        <mxPoint x="430" y="460" as="targetPoint"/>
                    </mxGeometry>
                </mxCell>
                <mxCell id="2" value="2&lt;br&gt;j&amp;lt;asientos.len" style="ellipse;whiteSpace=wrap;html=1;aspect=fixed;" parent="1" vertex="1">
                    <mxGeometry x="220" y="160" width="80" height="80" as="geometry"/>
                </mxCell>
                <mxCell id="6" value="F" style="edgeStyle=none;html=1;" parent="1" source="5" target="7" edge="1">
                    <mxGeometry relative="1" as="geometry">
                        <mxPoint x="280" y="670" as="targetPoint"/>
                    </mxGeometry>
                </mxCell>
                <mxCell id="8" value="T" style="edgeStyle=none;html=1;" parent="1" source="5" target="11" edge="1">
                    <mxGeometry relative="1" as="geometry">
                        <mxPoint x="490" y="560" as="targetPoint"/>
                    </mxGeometry>
                </mxCell>
                <mxCell id="5" value="4&lt;br&gt;sisitiosLibres&amp;lt;solicitados" style="ellipse;whiteSpace=wrap;html=1;aspect=fixed;" parent="1" vertex="1">
                    <mxGeometry x="334" y="330" width="80" height="80" as="geometry"/>
                </mxCell>
                <mxCell id="19" value="T" style="edgeStyle=none;html=1;entryX=0.5;entryY=0;entryDx=0;entryDy=0;" parent="1" source="7" target="36" edge="1">
                    <mxGeometry relative="1" as="geometry">
                        <mxPoint x="268.57142857142856" y="840" as="targetPoint"/>
                    </mxGeometry>
                </mxCell>
                <mxCell id="22" value="F" style="edgeStyle=none;html=1;" parent="1" source="7" target="23" edge="1">
                    <mxGeometry relative="1" as="geometry">
                        <mxPoint x="150" y="950" as="targetPoint"/>
                    </mxGeometry>
                </mxCell>
                <mxCell id="7" value="3&lt;br&gt;sitiosLibres==solicitados" style="ellipse;whiteSpace=wrap;html=1;aspect=fixed;" parent="1" vertex="1">
                    <mxGeometry x="160" y="410" width="80" height="80" as="geometry"/>
                </mxCell>
                <mxCell id="12" value="F" style="edgeStyle=none;html=1;" parent="1" source="11" target="15" edge="1">
                    <mxGeometry relative="1" as="geometry">
                        <mxPoint x="350" y="700" as="targetPoint"/>
                    </mxGeometry>
                </mxCell>
                <mxCell id="13" value="T" style="edgeStyle=none;html=1;" parent="1" source="11" target="14" edge="1">
                    <mxGeometry relative="1" as="geometry">
                        <mxPoint x="540" y="680" as="targetPoint"/>
                    </mxGeometry>
                </mxCell>
                <mxCell id="11" value="5&lt;br&gt;!asientos[j]" style="ellipse;whiteSpace=wrap;html=1;aspect=fixed;" parent="1" vertex="1">
                    <mxGeometry x="430" y="440" width="80" height="80" as="geometry"/>
                </mxCell>
                <mxCell id="34" style="edgeStyle=none;html=1;entryX=0.75;entryY=0;entryDx=0;entryDy=0;" parent="1" source="14" target="33" edge="1">
                    <mxGeometry relative="1" as="geometry"/>
                </mxCell>
                <mxCell id="14" value="7" style="whiteSpace=wrap;html=1;aspect=fixed;" parent="1" vertex="1">
                    <mxGeometry x="494" y="570" width="80" height="80" as="geometry"/>
                </mxCell>
                <mxCell id="32" style="edgeStyle=none;html=1;" parent="1" source="15" target="33" edge="1">
                    <mxGeometry relative="1" as="geometry">
                        <mxPoint x="450" y="770" as="targetPoint"/>
                    </mxGeometry>
                </mxCell>
                <mxCell id="15" value="6" style="whiteSpace=wrap;html=1;aspect=fixed;" parent="1" vertex="1">
                    <mxGeometry x="370" y="570" width="80" height="80" as="geometry"/>
                </mxCell>
                <mxCell id="23" value="12&lt;br&gt;return" style="rounded=1;whiteSpace=wrap;html=1;" parent="1" vertex="1">
                    <mxGeometry x="40" y="850" width="120" height="60" as="geometry"/>
                </mxCell>
                <mxCell id="25" value="T" style="edgeStyle=none;html=1;" parent="1" source="24" target="38" edge="1">
                    <mxGeometry relative="1" as="geometry">
                        <mxPoint x="290.76956043956034" y="850" as="targetPoint"/>
                    </mxGeometry>
                </mxCell>
                <mxCell id="28" value="F" style="edgeStyle=none;html=1;entryX=0.664;entryY=-0.022;entryDx=0;entryDy=0;entryPerimeter=0;" parent="1" source="24" target="23" edge="1">
                    <mxGeometry relative="1" as="geometry"/>
                </mxCell>
                <mxCell id="24" value="10&lt;br&gt;k&amp;lt;(primerLibre+solicitados)" style="ellipse;whiteSpace=wrap;html=1;aspect=fixed;" parent="1" vertex="1">
                    <mxGeometry x="220.00142857142856" y="710" width="80" height="80" as="geometry"/>
                </mxCell>
                <mxCell id="31" style="edgeStyle=none;html=1;entryX=0.5;entryY=0;entryDx=0;entryDy=0;" parent="1" source="30" target="2" edge="1">
                    <mxGeometry relative="1" as="geometry"/>
                </mxCell>
                <mxCell id="30" value="1" style="whiteSpace=wrap;html=1;aspect=fixed;" parent="1" vertex="1">
                    <mxGeometry x="220" y="40" width="80" height="80" as="geometry"/>
                </mxCell>
                <mxCell id="35" style="edgeStyle=none;html=1;entryX=1;entryY=0.5;entryDx=0;entryDy=0;" parent="1" source="33" target="2" edge="1">
                    <mxGeometry relative="1" as="geometry">
                        <mxPoint x="650" y="220" as="targetPoint"/>
                        <Array as="points">
                            <mxPoint x="600" y="730"/>
                            <mxPoint x="600" y="200"/>
                        </Array>
                    </mxGeometry>
                </mxCell>
                <mxCell id="33" value="8&lt;br&gt;j++" style="whiteSpace=wrap;html=1;aspect=fixed;" parent="1" vertex="1">
                    <mxGeometry x="430" y="690" width="80" height="80" as="geometry"/>
                </mxCell>
                <mxCell id="37" style="edgeStyle=none;html=1;entryX=0.5;entryY=0;entryDx=0;entryDy=0;" parent="1" source="36" target="24" edge="1">
                    <mxGeometry relative="1" as="geometry"/>
                </mxCell>
                <mxCell id="36" value="9" style="whiteSpace=wrap;html=1;aspect=fixed;" parent="1" vertex="1">
                    <mxGeometry x="220" y="580" width="80" height="80" as="geometry"/>
                </mxCell>
                <mxCell id="40" style="edgeStyle=none;html=1;entryX=0.985;entryY=0.588;entryDx=0;entryDy=0;entryPerimeter=0;" parent="1" source="38" target="24" edge="1">
                    <mxGeometry relative="1" as="geometry">
                        <mxPoint x="340" y="610" as="targetPoint"/>
                        <Array as="points">
                            <mxPoint x="340" y="880"/>
                            <mxPoint x="340" y="760"/>
                        </Array>
                    </mxGeometry>
                </mxCell>
                <mxCell id="38" value="11" style="whiteSpace=wrap;html=1;aspect=fixed;" parent="1" vertex="1">
                    <mxGeometry x="219.99956043956036" y="840" width="80" height="80" as="geometry"/>
                </mxCell>
            </root>
        </mxGraphModel>
    </diagram>
</mxfile>